<?xml version="1.0" encoding="UTF-8" standalone="no"?>
<!DOCTYPE svg PUBLIC "-//W3C//DTD SVG 1.1//EN" "http://www.w3.org/Graphics/SVG/1.1/DTD/svg11.dtd">
<svg width="100%" height="100%" viewBox="0 0 812 925" version="1.1" xmlns="http://www.w3.org/2000/svg" xmlns:xlink="http://www.w3.org/1999/xlink" xml:space="preserve" xmlns:serif="http://www.serif.com/" style="fill-rule:evenodd;clip-rule:evenodd;stroke-linejoin:round;stroke-miterlimit:2;">
    <g transform="matrix(1,0,0,1,-106.238,-49.9755)">
        <g transform="matrix(18.5916,0,0,18.5916,103.078,47.2332)">
            <path d="M21.57,37.18C21.69,37.3 21.84,37.36 22,37.36C22.16,37.36 22.31,37.3 22.43,37.18L37.21,22.4C37.45,22.16 37.45,21.78 37.21,21.54L22.43,6.75C22.191,6.521 21.809,6.521 21.57,6.75L6.79,21.54C6.55,21.78 6.55,22.16 6.79,22.4L21.57,37.18ZM22,29.47L14.5,21.97L22,14.47L29.5,21.97L22,29.47ZM19.65,21.54L21.58,19.61C21.81,19.38 22.21,19.38 22.44,19.61L24.37,21.54C24.61,21.78 24.61,22.16 24.37,22.4L22.44,24.33C22.32,24.45 22.17,24.51 22.01,24.51C21.85,24.51 21.69,24.44 21.58,24.33L19.65,22.4C19.535,22.287 19.47,22.132 19.47,21.97C19.47,21.808 19.535,21.653 19.65,21.54ZM43.64,27.6C43.76,27.71 43.82,27.87 43.81,28.03C43.81,28.19 43.74,28.35 43.63,28.46L22.42,49.67C22.3,49.79 22.15,49.85 21.99,49.85C21.83,49.85 21.67,49.78 21.56,49.67L0.35,28.46C0.234,28.347 0.169,28.192 0.17,28.03C0.17,27.87 0.24,27.71 0.35,27.6L2.95,25L0.35,22.4C0.235,22.287 0.17,22.132 0.17,21.97C0.17,21.808 0.235,21.653 0.35,21.54L21.57,0.32C21.8,0.09 22.2,0.09 22.43,0.32L43.64,21.54C43.76,21.66 43.82,21.81 43.82,21.97C43.82,22.13 43.75,22.29 43.64,22.4L41.04,25L43.64,27.6ZM22,1.61L1.64,21.97L13.12,33.44L22,42.32L42.36,21.97L22,1.61Z" style="fill:rgb(115,103,240);fill-rule:nonzero;"/>
        </g>
    </g>
</svg>
